<svg id="ehHNyqWsdjp1" xmlns="http://www.w3.org/2000/svg" xmlns:xlink="http://www.w3.org/1999/xlink" viewBox="0 0 1920 1080" shape-rendering="geometricPrecision" text-rendering="geometricPrecision" project-id="28b3742816e745f9932e557ead70f6e2" export-id="0ea01a09054246c8bb59c4a4e3bf7a75" cached="false"><g transform="translate(-20.878841-6.959613)"><rect width="13.116871" height="55.090857" rx="0" ry="0" transform="matrix(1.770327 0.748256-.475772 1.125647 97.08471 280.075606)" fill="#fff45e" stroke-width="0"/><rect width="13.116871" height="55.090857" rx="0" ry="0" transform="matrix(1.13529-1.550826 0.986079 0.721864 178.333583 38.558193)" fill="#fff45e" stroke-width="0"/><rect width="13.116871" height="55.090857" rx="0" ry="0" transform="matrix(.781122 1.756074-1.116584 0.496669 233.452203 326.705182)" fill="#59efe8" stroke-width="0"/><rect width="13.116871" height="55.090857" rx="0" ry="0" transform="matrix(1.692991 0.909796-.578486 1.076473 367.245472 42.707562)" fill="#59efe8" stroke-width="0"/><rect width="13.116871" height="55.090857" rx="0" ry="0" transform="matrix(1.241516 1.467168-.932886 0.789407 583.24447 23.593981)" fill="#fff45e" stroke-width="0"/><rect width="13.116871" height="55.090857" rx="0" ry="0" transform="matrix(1.64413 0.995381-.632904 1.045406 112.480054 83.000936)" fill="#59efe8" stroke-width="0"/><rect width="13.116871" height="55.090857" rx="0" ry="0" transform="matrix(1.916327-.147096 0.09353 1.21848 355.906339 243.954947)" fill="#fff45e" stroke-width="0"/><rect width="13.116871" height="55.090857" rx="0" ry="0" transform="matrix(1.751213-.791959 0.50356 1.113493 680.833527 85.778058)" fill="#59efe8" stroke-width="0"/><rect width="13.116871" height="55.090857" rx="0" ry="0" transform="matrix(-1.074864 1.593302-1.013087-.683443 105.82936 440.835238)" fill="#f585ff" stroke-width="0"/><rect width="13.116871" height="55.090857" rx="0" ry="0" transform="matrix(.184754 1.913063-1.216405 0.117474 272.407727 186.345812)" fill="#f585ff" stroke-width="0"/><rect width="13.116871" height="55.090857" rx="0" ry="0" transform="matrix(-.978961 1.653959-1.051655-.622464 532.122331 169.202608)" fill="#f585ff" stroke-width="0"/></g><g transform="matrix(-1-.000091 0.000091-1 1955.876599 1098.219481)"><rect width="13.116871" height="55.090857" rx="0" ry="0" transform="matrix(1.770327 0.748256-.475772 1.125647 97.080816 237.351574)" fill="#fff45e" stroke-width="0"/><rect width="13.116871" height="55.090857" rx="0" ry="0" transform="matrix(1.525326-1.169328 0.743507 0.969865 186.279103 48.065436)" fill="#fff45e" stroke-width="0"/><rect width="13.116871" height="55.090857" rx="0" ry="0" transform="matrix(.781122 1.756074-1.116584 0.496669 233.452203 326.705182)" fill="#f585ff" stroke-width="0"/><rect width="13.116871" height="55.090857" rx="0" ry="0" transform="matrix(-.352916 1.889285-1.201285-.224398 397.818694 72.116711)" fill="#59efe8" stroke-width="0"/><rect width="13.116871" height="55.090857" rx="0" ry="0" transform="matrix(1.241516 1.467168-.932886 0.789407 583.24447 23.593981)" fill="#f585ff" stroke-width="0"/><rect width="13.116871" height="55.090857" rx="0" ry="0" transform="matrix(1.64413 0.995381-.632904 1.045406 112.480054 83.000936)" fill="#59efe8" stroke-width="0"/><rect width="13.116871" height="55.090857" rx="0" ry="0" transform="matrix(1.916327-.147096 0.09353 1.21848 355.906339 243.954947)" fill="#59efe8" stroke-width="0"/><rect width="13.116871" height="55.090857" rx="0" ry="0" transform="matrix(1.751213-.791959 0.50356 1.113493 680.833527 85.778058)" fill="#59efe8" stroke-width="0"/><rect width="13.116871" height="55.090857" rx="0" ry="0" transform="matrix(-1.074864 1.593302-1.013087-.683443 129.057164 433.28633)" fill="#59efe8" stroke-width="0"/><rect width="13.116871" height="55.090857" rx="0" ry="0" transform="matrix(.184754 1.913063-1.216405 0.117474 272.407727 186.345812)" fill="#f585ff" stroke-width="0"/><rect width="13.116871" height="55.090857" rx="0" ry="0" transform="matrix(-.978961 1.653959-1.051655-.622464 532.122331 169.202608)" fill="#fff45e" stroke-width="0"/></g><g transform="matrix(.999999 0.001427 0.001427-.999999 44.779393 1189.415199)"><rect width="13.116871" height="55.090857" rx="0" ry="0" transform="matrix(1.816187 0.628816-.399827 1.154807 152.077802 287.93045)" fill="#59efe8" stroke-width="0"/><rect width="13.116871" height="55.090857" rx="0" ry="0" transform="matrix(1.525326-1.169328 0.743507 0.969865 0.465403 315.217656)" fill="#fff45e" stroke-width="0"/><rect width="13.116871" height="55.090857" rx="0" ry="0" transform="matrix(.781122 1.756074-1.116584 0.496669 270.14484 352.227365)" fill="#fff45e" stroke-width="0"/><rect width="13.116871" height="55.090857" rx="0" ry="0" transform="matrix(-.352916 1.889285-1.201285-.224398 68.130342 180.315606)" fill="#f585ff" stroke-width="0"/><rect width="13.116871" height="55.090857" rx="0" ry="0" transform="matrix(-1.428206 1.286147-.817785-.908112 417.490747 199.786425)" fill="#59efe8" stroke-width="0"/><rect width="13.116871" height="55.090857" rx="0" ry="0" transform="matrix(1.309814 1.406532-.894331 0.832834 193.845418 135.27058)" fill="#fff45e" stroke-width="0"/><rect width="13.116871" height="55.090857" rx="0" ry="0" transform="matrix(1.916327-.147096 0.09353 1.21848 406.716473 278.730585)" fill="#59efe8" stroke-width="0"/><rect width="13.116871" height="55.090857" rx="0" ry="0" transform="matrix(-.335488-1.892457 1.203302-.213317 587.886135 169.830197)" fill="#fff45e" stroke-width="0"/><rect width="13.116871" height="55.090857" rx="0" ry="0" transform="matrix(-1.074864 1.593302-1.013087-.683443 62.724152 476.45696)" fill="#59efe8" stroke-width="0"/><rect width="13.116871" height="55.090857" rx="0" ry="0" transform="matrix(.184754 1.913063-1.216405 0.117474 293.971011 228.41558)" fill="#f585ff" stroke-width="0"/><rect width="13.116871" height="55.090857" rx="0" ry="0" transform="matrix(-1.909493-.21859 0.138989-1.214134 534.10003 261.8114)" fill="#f585ff" stroke-width="0"/></g><g transform="matrix(-1 0 0 1 1895.778107-116.901045)"><rect width="13.116871" height="55.090857" rx="0" ry="0" transform="matrix(1.816187 0.628816-.399827 1.154807 152.077802 287.93045)" fill="#fff45e" stroke-width="0"/><rect width="13.116871" height="55.090857" rx="0" ry="0" transform="matrix(1.525326-1.169328 0.743507 0.969865 0.465403 315.217656)" fill="#f585ff" stroke-width="0"/><rect width="13.116871" height="55.090857" rx="0" ry="0" transform="matrix(.781122 1.756074-1.116584 0.496669 270.14484 352.227365)" fill="#f585ff" stroke-width="0"/><rect width="13.116871" height="55.090857" rx="0" ry="0" transform="matrix(-.352916 1.889285-1.201285-.224398 68.130342 180.315606)" fill="#59efe8" stroke-width="0"/><rect width="13.116871" height="55.090857" rx="0" ry="0" transform="matrix(-1.428206 1.286147-.817785-.908112 417.490747 199.786425)" fill="#f585ff" stroke-width="0"/><rect width="13.116871" height="55.090857" rx="0" ry="0" transform="matrix(1.309814 1.406532-.894331 0.832834 193.845418 135.27058)" fill="#fff45e" stroke-width="0"/><rect width="13.116871" height="55.090857" rx="0" ry="0" transform="matrix(1.916327-.147096 0.09353 1.21848 406.716473 278.730585)" fill="#fff45e" stroke-width="0"/><rect width="13.116871" height="55.090857" rx="0" ry="0" transform="matrix(-.335488-1.892457 1.203302-.213317 587.886135 169.830197)" fill="#59efe8" stroke-width="0"/><rect width="13.116871" height="55.090857" rx="0" ry="0" transform="matrix(-1.074864 1.593302-1.013087-.683443 62.724152 476.45696)" fill="#59efe8" stroke-width="0"/><rect width="13.116871" height="55.090857" rx="0" ry="0" transform="matrix(.184754 1.913063-1.216405 0.117474 293.971011 228.41558)" fill="#59efe8" stroke-width="0"/><rect width="13.116871" height="55.090857" rx="0" ry="0" transform="matrix(-1.909493-.21859 0.138989-1.214134 534.10003 261.8114)" fill="#f585ff" stroke-width="0"/></g><polygon points="0,-192 56.427384,-77.665631 182.602851,-59.331263 91.301426,29.665631 112.854768,155.331263 0,96 -112.854768,155.331263 -91.301426,29.665631 -182.602851,-59.331263 -56.427384,-77.665631 0,-192" transform="matrix(.071781 0.023545-.021433 0.065344 180.045411 564.600527)" fill="#130032" stroke-width="0"/><polygon points="0,-192 56.427384,-77.665631 182.602851,-59.331263 91.301426,29.665631 112.854768,155.331263 0,96 -112.854768,155.331263 -91.301426,29.665631 -182.602851,-59.331263 -56.427384,-77.665631 0,-192" transform="matrix(.09448-.116505 0.116505 0.09448 306.804027 170.843136)" fill="#130032" stroke-width="0"/><polygon points="0,-192 56.427384,-77.665631 182.602851,-59.331263 91.301426,29.665631 112.854768,155.331263 0,96 -112.854768,155.331263 -91.301426,29.665631 -182.602851,-59.331263 -56.427384,-77.665631 0,-192" transform="matrix(.096708-.025446 0.025446 0.096708 1777.857714 323.322421)" fill="#130032" stroke-width="0"/><polygon points="0,-192 56.427384,-77.665631 182.602851,-59.331263 91.301426,29.665631 112.854768,155.331263 0,96 -112.854768,155.331263 -91.301426,29.665631 -182.602851,-59.331263 -56.427384,-77.665631 0,-192" transform="matrix(.11 0 0 0.11 816.299281 843.330685)" fill="#130032" stroke-width="0"/><polygon points="0,-192 56.427384,-77.665631 182.602851,-59.331263 91.301426,29.665631 112.854768,155.331263 0,96 -112.854768,155.331263 -91.301426,29.665631 -182.602851,-59.331263 -56.427384,-77.665631 0,-192" transform="matrix(.036581 0.088902-.092477 0.038052 1069.215546 949.572181)" fill="#130032" stroke-width="0"/><polygon points="0,-192 56.427384,-77.665631 182.602851,-59.331263 91.301426,29.665631 112.854768,155.331263 0,96 -112.854768,155.331263 -91.301426,29.665631 -182.602851,-59.331263 -56.427384,-77.665631 0,-192" transform="matrix(.09565-.009632 0.010019 0.099497 1233.057226 267.705584)" fill="#130032" stroke-width="0"/><polygon points="0,-192 56.427384,-77.665631 182.602851,-59.331263 91.301426,29.665631 112.854768,155.331263 0,96 -112.854768,155.331263 -91.301426,29.665631 -182.602851,-59.331263 -56.427384,-77.665631 0,-192" transform="matrix(-.043079-.085942 0.089398-.044811 531.201105 379.114503)" fill="#130032" stroke-width="0"/><polygon points="0,-192 56.427384,-77.665631 182.602851,-59.331263 91.301426,29.665631 112.854768,155.331263 0,96 -112.854768,155.331263 -91.301426,29.665631 -182.602851,-59.331263 -56.427384,-77.665631 0,-192" transform="matrix(.046983 0.059157-.053851 0.042769 826.819095 143.075108)" fill="#130032" stroke-width="0"/><polygon points="0,-192 56.427384,-77.665631 182.602851,-59.331263 91.301426,29.665631 112.854768,155.331263 0,96 -112.854768,155.331263 -91.301426,29.665631 -182.602851,-59.331263 -56.427384,-77.665631 0,-192" transform="matrix(.141538 0.049668-.049668 0.141538 1549.469445 343.325197)" fill="#130032" stroke-width="0"/><polygon points="0,-192 56.427384,-77.665631 182.602851,-59.331263 91.301426,29.665631 112.854768,155.331263 0,96 -112.854768,155.331263 -91.301426,29.665631 -182.602851,-59.331263 -56.427384,-77.665631 0,-192" transform="matrix(.105968-.040313 0.040765 0.107157 1401.378294 824.560128)" fill="#130032" stroke-width="0"/><polygon points="0,-192 56.427384,-77.665631 182.602851,-59.331263 91.301426,29.665631 112.854768,155.331263 0,96 -112.854768,155.331263 -91.301426,29.665631 -182.602851,-59.331263 -56.427384,-77.665631 0,-192" transform="matrix(.067492 0.033938-.030894 0.061439 1700.608836 674.427182)" fill="#130032" stroke-width="0"/><polygon points="0,-192 56.427384,-77.665631 182.602851,-59.331263 91.301426,29.665631 112.854768,155.331263 0,96 -112.854768,155.331263 -91.301426,29.665631 -182.602851,-59.331263 -56.427384,-77.665631 0,-192" transform="matrix(-.065508 0.088367-.088367-.065508 382.826337 856.248885)" fill="#130032" stroke-width="0"/></svg>
